<svg xmlns="http://www.w3.org/2000/svg" fill="none" viewBox="0 0 64 64">
  <style>
    @keyframes color-1{0%{fill:#F6F7EB}14%{fill:#e029b0}100%{fill:#e029b0}}
    @keyframes color-2{0%{fill:#F6F7EB}14%{fill:#F6F7EB}28%{fill:#e029b0}100%{fill:#e029b0}}
    @keyframes color-3{0%{fill:#F6F7EB}28%{fill:#F6F7EB}42%{fill:#e029b0}100%{fill:#e029b0}}
    @keyframes color-4{0%{fill:#F6F7EB}42%{fill:#F6F7EB}57%{fill:#e029b0}100%{fill:#e029b0}}
    @keyframes color-5{0%{fill:#F6F7EB}57%{fill:#F6F7EB}71%{fill:#e029b0}100%{fill:#e029b0}}
    @keyframes color-6{0%{fill:#F6F7EB}71%{fill:#F6F7EB}85%{fill:#e029b0}100%{fill:#e029b0}}
  </style>
  <path fill="#F6F7EB" d="M16 51.186H8a.72.72 0 0 1-.624-.362l-4-6.93a.72.72 0 0 1 0-.718l4-6.928A.725.725 0 0 1 8 35.886h8a.72.72 0 0 1 .624.362l3.792 6.566H32a.72.72 0 1 1 0 1.44H20.416l-3.792 6.568a.723.723 0 0 1-.624.364Zm-7.584-1.442h7.168l3.584-6.208-3.584-6.208H8.416l-3.584 6.208 3.584 6.208Z" style="animation:color-6 1500ms linear infinite"/>
  <path fill="#F6F7EB" d="M36 62.72h-8a.72.72 0 0 1-.624-.362l-4-6.928a.72.72 0 0 1 0-.718l4-6.928a.723.723 0 0 1 .624-.362h7.584l5.792-10.032a.718.718 0 1 1 1.246.718L36.83 48.142l3.792 6.568a.72.72 0 0 1 0 .718l-4 6.928a.713.713 0 0 1-.622.364Zm-7.584-1.44h7.168l3.584-6.208-3.584-6.208h-7.168l-3.584 6.208 3.584 6.208Z" style="animation:color-5 1500ms linear infinite"/>
  <path fill="#F6F7EB" d="M56 51.186h-8a.72.72 0 0 1-.624-.362l-4-6.93a.72.72 0 0 1 0-.718l3.792-6.568-5.792-10.032a.718.718 0 0 1 .264-.984.717.717 0 0 1 .982.262l5.792 10.032H56a.72.72 0 0 1 .624.362l4 6.928a.72.72 0 0 1 0 .718l-4 6.93a.725.725 0 0 1-.624.362Zm-7.584-1.442h7.168l3.584-6.208-3.584-6.208h-7.168l-3.584 6.208 3.584 6.208Z" style="animation:color-4 1500ms linear infinite"/>
  <path fill="#F6F7EB" d="M56 28.112h-8a.719.719 0 0 1-.624-.36l-3.792-6.57H32a.72.72 0 1 1 0-1.44h11.584l3.792-6.568a.72.72 0 0 1 .624-.36h8c.258 0 .494.136.624.36l4 6.928a.723.723 0 0 1 0 .72l-4 6.928a.717.717 0 0 1-.624.362Zm-7.584-1.44h7.168l3.584-6.208-3.584-6.208h-7.168l-3.584 6.208 3.584 6.208Z" style="animation:color-3 1500ms linear infinite"/>
  <path fill="#F6F7EB" d="M22 26.968a.722.722 0 0 1-.624-1.08l5.792-10.032-3.792-6.568a.723.723 0 0 1 0-.72l4-6.928A.719.719 0 0 1 28 1.28h8a.72.72 0 0 1 .624.36l4 6.928a.723.723 0 0 1 0 .72l-4 6.928a.72.72 0 0 1-.624.36h-7.584L22.624 26.61a.721.721 0 0 1-.624.358Zm6.416-11.832h7.168l3.584-6.208-3.584-6.208h-7.168l-3.584 6.208 3.584 6.208Z" style="animation:color-2 1500ms linear infinite"/>
  <path fill="#F6F7EB" d="M22 38.506a.712.712 0 0 1-.624-.362l-5.792-10.032H8a.719.719 0 0 1-.624-.36l-4-6.928a.723.723 0 0 1 0-.72l4-6.928a.723.723 0 0 1 .624-.36h8c.256 0 .496.136.624.36l4 6.928a.723.723 0 0 1 0 .72l-3.792 6.568 5.792 10.034a.72.72 0 0 1-.624 1.08ZM8.416 26.672h7.168l3.584-6.208-3.584-6.208H8.416l-3.584 6.208 3.584 6.208Z" style="animation:color-1 1500ms linear infinite"/>
</svg>
