<svg xmlns="http://www.w3.org/2000/svg" viewBox="0 0 64 64">
  <style>
    @keyframes color-1{0%{fill:#F6F7EB}50%{fill:#e029b0}}
  </style>
  <path fill="#F6F7EB" d="m46.362 60.624-.722-1.246c7.288-4.224 11.638-11.468 11.64-19.376h1.442c-.004 8.426-4.624 16.134-12.36 20.622ZM21 62.72c-2.084 0-4.092-.326-5.978-.928a.764.764 0 0 1-.198-.064 19.593 19.593 0 0 1-3.582-1.598.623.623 0 0 1-.19-.108C5.21 56.594 1.28 50.248 1.28 43c0-3.498.916-6.788 2.52-9.64l.018-.032c3.386-5.994 9.82-10.048 17.18-10.048 10.874 0 19.72 8.846 19.72 19.72C40.72 53.874 31.874 62.72 21 62.72Zm-4.442-1.986A18.27 18.27 0 0 0 21 61.28c8.962 0 16.438-6.482 17.986-15.004H36.23a2.282 2.282 0 0 1-1.972-1.14l-3.032-5.272a2.285 2.285 0 0 1-.002-2.266l3.696-6.434c-3.186-3.744-7.854-6.19-13.086-6.426l2.178 3.772c.53.92.36 2.072-.416 2.798l-4.8 4.428a.831.831 0 0 0-.15 1.024l7.296 12.67c.528.916.36 2.062-.41 2.79l-8.974 8.514Zm-4.06-1.554c.792.418 1.618.78 2.47 1.078l9.574-9.084a.834.834 0 0 0 .152-1.026l-7.296-12.67a2.267 2.267 0 0 1 .416-2.796l4.8-4.428a.826.826 0 0 0 .148-1.022l-2.592-4.494c-6.338.286-11.846 3.812-14.902 8.958l1.954 3.364a.833.833 0 0 0 .72.414h5.01c.812 0 1.566.438 1.97 1.138l2.058 3.562c.53.918.362 2.068-.412 2.794l-2.758 2.594a.83.83 0 0 0-.15 1.024l1.822 3.156a2.284 2.284 0 0 1 0 2.276l-2.984 5.162ZM4.472 35.194A18.153 18.153 0 0 0 2.72 43c0 6.498 3.408 12.214 8.532 15.458l2.984-5.158a.843.843 0 0 0 0-.836l-1.822-3.156a2.264 2.264 0 0 1 .412-2.792l2.758-2.594a.83.83 0 0 0 .15-1.026l-2.058-3.562a.831.831 0 0 0-.722-.416H7.942c-.806 0-1.56-.434-1.966-1.132l-1.504-2.592Zm31.404-2.806-3.404 5.926a.841.841 0 0 0 0 .83l3.034 5.272a.833.833 0 0 0 .722.418h2.958c.058-.604.09-1.214.09-1.834a18.134 18.134 0 0 0-3.4-10.612ZM21.018 4l.906-.906a.718.718 0 0 0 0-1.018.718.718 0 0 0-1.018 0L20 2.982l-.906-.904a.718.718 0 0 0-1.018 0 .718.718 0 0 0 0 1.018l.906.904-.904.906a.718.718 0 1 0 1.016 1.018L20 5.018l.906.906a.716.716 0 0 0 1.016 0 .718.718 0 0 0 0-1.018L21.018 4Zm-16 12 .906-.906a.718.718 0 0 0 0-1.018.718.718 0 0 0-1.018 0L4 14.982l-.906-.904a.718.718 0 0 0-1.018 0 .718.718 0 0 0 0 1.018l.906.904-.904.906a.718.718 0 1 0 1.016 1.018L4 17.018l.906.906a.716.716 0 0 0 1.016 0 .718.718 0 0 0 0-1.018L5.018 16Z"/>
  <path fill="#F6F7EB" d="M57.068 31.778a.719.719 0 0 1-.624-.36l-5.84-10.096-2.306 1.332a.73.73 0 0 1-.53.076l-2.656-.644a5.05 5.05 0 0 1-.042 2.46 5.042 5.042 0 0 1-2.364 3.078.722.722 0 0 1-.982-.262l-1.862-3.226-1.504.868-.718-1.248 1.502-.866-1.766-3.06a.715.715 0 0 1-.072-.546.725.725 0 0 1 .336-.438c1.974-1.142 4.408-.792 5.994.686l.772-2.626a.718.718 0 0 1 .332-.42l2.252-1.298-5.748-9.984a.723.723 0 0 1 .266-.984l4.924-2.842a.71.71 0 0 1 .546-.072c.184.05.342.17.438.336l5.744 9.986 1.846-1.064a.72.72 0 0 1 .982.264l2.842 4.922a.715.715 0 0 1 .072.546.725.725 0 0 1-.336.438l-1.79 1.032 5.846 10.092a.719.719 0 0 1-.264.986l-4.932 2.842a.734.734 0 0 1-.358.092Zm-5.214-11.174 5.478 9.472 3.684-2.124-5.486-9.47-3.676 2.122Zm-12.834-.81 3.556 6.162a3.607 3.607 0 0 0 1.102-1.782 3.6 3.6 0 0 0-.332-2.7c-.012-.018-.024-.036-.034-.054a.382.382 0 0 1-.03-.056 3.638 3.638 0 0 0-4.262-1.57Zm5.82.746 2.988.724 9.394-5.418-2.122-3.674-9.394 5.418-.866 2.95ZM42.85 5.106l5.386 9.362 3.676-2.122-5.384-9.362-3.678 2.122Z" style="animation:color-1 1200ms linear infinite"/>
</svg>
