<svg xmlns="http://www.w3.org/2000/svg" viewBox="0 0 64 64">
  <style>
    @keyframes color-1{0%{fill:#F6F7EB}50%{fill:#DE5D3A}}
  </style>
  <path fill="#F6F7EB" d="M10.208 62.726a8.91 8.91 0 0 1-6.32-2.614A8.882 8.882 0 0 1 1.28 53.79c0-2.394.926-4.638 2.608-6.32L19.36 32 3.888 16.528a8.874 8.874 0 0 1-2.608-6.32c0-2.394.926-4.638 2.608-6.32a8.87 8.87 0 0 1 6.32-2.608c2.394 0 4.638.926 6.32 2.608L32 19.36 47.47 3.89a8.874 8.874 0 0 1 6.32-2.608c2.394 0 4.638.926 6.322 2.608 3.484 3.484 3.484 9.154 0 12.64L44.64 32l15.472 15.47c3.484 3.484 3.484 9.156 0 12.642-3.488 3.484-9.158 3.484-12.642 0L32 44.64 16.528 60.112a8.901 8.901 0 0 1-6.32 2.614Zm0-60.006a7.446 7.446 0 0 0-5.302 2.186 7.454 7.454 0 0 0-2.186 5.302c0 2.01.776 3.892 2.186 5.302l15.97 15.97a.73.73 0 0 1 .01 1.028L4.906 48.49a7.438 7.438 0 0 0-2.186 5.3c0 2.008.776 3.892 2.186 5.302 2.924 2.928 7.68 2.924 10.604 0l15.98-15.98a.718.718 0 0 1 1.018 0l15.982 15.98c2.922 2.922 7.682 2.926 10.604 0 2.924-2.924 2.924-7.682 0-10.604l-15.98-15.982a.718.718 0 0 1 0-1.018l15.98-15.98c2.924-2.924 2.924-7.68 0-10.604a7.46 7.46 0 0 0-5.302-2.184 7.438 7.438 0 0 0-5.3 2.186L32.51 20.886a.718.718 0 0 1-1.018 0l-15.98-15.98a7.459 7.459 0 0 0-5.304-2.186Z" style="animation:color-1 1200ms linear infinite"/>
</svg>
