<svg xmlns="http://www.w3.org/2000/svg" viewBox="0 0 64 64">
  <style>
    @keyframes waving-1{0%,80%{fill:#f6f7eb}20%,40%,60%{fill:#e029b0}}
    @keyframes waving-2{0%,20%{fill:#f6f7eb}40%,60%,80%{fill:#e029b0}}
    @keyframes waving-3{0%,20%,40%{fill:#f6f7eb}60%,80%{fill:#e029b0}}
  </style>
  <path fill="#F6F7EB" d="m43.224 42.206-12.222-12.22 1.908-1.908a3.725 3.725 0 0 0 4.72-.448A3.7 3.7 0 0 0 38.72 25a3.722 3.722 0 0 0-7.44 0c0 .742.216 1.452.618 2.054l-1.912 1.912L17.768 16.75a.718.718 0 0 0-1.018 0 18.597 18.597 0 0 0-5.484 13.238c0 5 1.948 9.7 5.484 13.238a18.668 18.668 0 0 0 13.238 5.472c4.794 0 9.586-1.824 13.238-5.472a.722.722 0 0 0-.002-1.02Zm-9.836-18.818A2.273 2.273 0 0 1 35 22.722c.584 0 1.168.222 1.612.666.432.43.668 1.002.668 1.612a2.282 2.282 0 0 1-4.56 0c0-.61.238-1.182.668-1.612Zm-15.62 18.818a17.165 17.165 0 0 1-5.062-12.218c0-4.376 1.616-8.502 4.564-11.7l24.416 24.418c-6.77 6.234-17.352 6.068-23.918-.5ZM28.682 61.28c-.334-3.128-2.834-5.594-5.962-5.932V50a.72.72 0 1 0-1.44 0v5.348c-3.128.338-5.628 2.804-5.962 5.932H6v1.442h32V61.28h-9.318Zm-11.914 0A5.291 5.291 0 0 1 22 56.72a5.29 5.29 0 0 1 5.232 4.558l-10.464.002Z"/>
  <path fill="#F6F7EB" d="M44.686 28h-1.442c0-3.002-1.168-5.828-3.292-7.952A11.172 11.172 0 0 0 32 16.754v-1.44a12.61 12.61 0 0 1 8.97 3.714A12.612 12.612 0 0 1 44.686 28Z" style="animation:waving-1 960ms linear infinite"/>
  <path fill="#F6F7EB" d="M51.538 28h-1.442c0-4.834-1.88-9.38-5.298-12.796a17.984 17.984 0 0 0-12.796-5.3v-1.44a19.42 19.42 0 0 1 13.816 5.722A19.416 19.416 0 0 1 51.538 28Z" style="animation:waving-2 960ms linear infinite"/>
  <path fill="#F6F7EB" d="M58.72 28h-1.44c0-6.762-2.632-13.12-7.414-17.902C44.832 5.064 39.154 2.72 32 2.72V1.28c7.562 0 13.562 2.478 18.884 7.8C55.938 14.134 58.72 20.852 58.72 28Z" style="animation:waving-3 960ms linear infinite"/>
</svg>
