<svg aria-hidden="true" style="display: none;" xmlns="http://www.w3.org/2000/svg" version="1.1">
  <symbol id="icon-arrow-left" viewBox="0 0 24 24"><path d="M10.5 19.5L11.5575 18.4425L5.8725 12.75H21V11.25H5.8725L11.5575 5.5575L10.5 4.5L3 12L10.5 19.5Z" /></symbol>
  <symbol id="icon-arrow-right" viewBox="0 0 24 24"><path d="M13.5 4.5L12.4275 5.54475L18.1125 11.25H3V12.75H18.1125L12.4275 18.4298L13.5 19.5L21 12L13.5 4.5Z" /></symbol>
  <symbol id="icon-caret-negative" viewBox="0 0 9 5"><path d="M8.66669 0L4.66669 5L0.666687 -6.99382e-07L8.66669 0Z" fill="#A5270C"/></symbol>
  <symbol id="icon-caret-positive" viewBox="0 0 8 5"><path d="M0 5L4 0L8 5H0Z" fill="#15940A"/></symbol>
  <symbol id="icon-chart-candlestick" viewBox="0 0 24 24"><path d="M19.5 7.5H18V4.5H16.5V7.5H15V16.5H16.5V19.5H18V16.5H19.5V7.5ZM18 15H16.5V9H18V15Z" /><path d="M10.5 6H9V3H7.5V6H6V13.5H7.5V16.5H9V13.5H10.5V6ZM9 12H7.5V7.5H9V12Z" /><path d="M22.5 22.5H3C2.60218 22.5 2.22064 22.342 1.93934 22.0607C1.65804 21.7794 1.5 21.3978 1.5 21V1.5H3V21H22.5V22.5Z" /></symbol>
  <symbol id="icon-checkmark-outline" viewBox="0 0 24 24"><path d="M10.5 16.0605L6.75 12.3097L7.80975 11.25L10.5 13.9395L16.1887 8.25L17.25 9.31125L10.5 16.0605Z" /><path d="M12 1.5C9.9233 1.5 7.89323 2.11581 6.16652 3.26957C4.4398 4.42332 3.09399 6.0632 2.29927 7.98182C1.50455 9.90045 1.29661 12.0116 1.70176 14.0484C2.1069 16.0852 3.10693 17.9562 4.57538 19.4246C6.04383 20.8931 7.91476 21.8931 9.95156 22.2982C11.9884 22.7034 14.0996 22.4955 16.0182 21.7007C17.9368 20.906 19.5767 19.5602 20.7304 17.8335C21.8842 16.1068 22.5 14.0767 22.5 12C22.5 9.21523 21.3938 6.54451 19.4246 4.57538C17.4555 2.60625 14.7848 1.5 12 1.5ZM12 21C10.22 21 8.47992 20.4722 6.99987 19.4832C5.51983 18.4943 4.36628 17.0887 3.68509 15.4442C3.0039 13.7996 2.82567 11.99 3.17294 10.2442C3.5202 8.49836 4.37737 6.89471 5.63604 5.63604C6.89472 4.37737 8.49836 3.5202 10.2442 3.17293C11.99 2.82567 13.7996 3.0039 15.4442 3.68508C17.0887 4.36627 18.4943 5.51983 19.4832 6.99987C20.4722 8.47991 21 10.22 21 12C21 14.3869 20.0518 16.6761 18.364 18.364C16.6761 20.0518 14.387 21 12 21Z" /></symbol>
  <symbol id="icon-compound" viewBox="0 0 24 24"><path d="M6 3V6H3V3H6ZM1.5 1.5V7.5H7.5V1.5H1.5Z" /><path d="M13.5 5.25V8.25H10.5V5.25H13.5ZM9 3.75V9.75H15V3.75H9Z" /><path d="M6 12V15H3V12H6ZM1.5 10.5V16.5H7.5V10.5H1.5Z" /><path d="M16.5 7.5V12H12V16.5H7.5V22.5H22.5V7.5H16.5ZM13.5 13.5H16.5V16.5H13.5V13.5ZM12 21H9V18H12V21ZM16.5 21H13.5V18H16.5V21ZM21 21H18V18H21V21ZM21 16.5H18V13.5H21V16.5ZM18 12V9H21V12H18Z" /></symbol>
  <symbol id="icon-circle-cross" viewBox="0 0 24 24"><path d="M16.05 17.25L12 13.2L7.95 17.25L6.75 16.05L10.8 12L6.75 7.95L7.95 6.75L12 10.8L16.05 6.75L17.25 7.95L13.2 12L17.25 16.05L16.05 17.25Z" /><path fill-rule="evenodd" clip-rule="evenodd" d="M12 22C17.5228 22 22 17.5228 22 12C22 6.47715 17.5228 2 12 2C6.47715 2 2 6.47715 2 12C2 17.5228 6.47715 22 12 22ZM12 24C18.6274 24 24 18.6274 24 12C24 5.37258 18.6274 0 12 0C5.37258 0 0 5.37258 0 12C0 18.6274 5.37258 24 12 24Z" /></symbol>
  <symbol id="icon-discord" viewBox="0 0 24 24"><path d="M20.317 4.36642C18.7873 3.66454 17.147 3.14742 15.4319 2.85125C15.4007 2.84553 15.3695 2.85982 15.3534 2.88839C15.1424 3.2636 14.9087 3.7531 14.7451 4.13784C12.9004 3.86168 11.0652 3.86168 9.25832 4.13784C9.09465 3.74455 8.85248 3.2636 8.64057 2.88839C8.62449 2.86077 8.59328 2.84649 8.56205 2.85125C6.84791 3.14648 5.20756 3.66359 3.67693 4.36642C3.66368 4.37213 3.65233 4.38166 3.64479 4.39404C0.533392 9.0424 -0.31895 13.5765 0.0991801 18.0544C0.101072 18.0763 0.11337 18.0973 0.130398 18.1106C2.18321 19.6181 4.17171 20.5333 6.12328 21.14C6.15451 21.1495 6.18761 21.1381 6.20748 21.1123C6.66913 20.4819 7.08064 19.8172 7.43348 19.1181C7.4543 19.0772 7.43442 19.0286 7.39186 19.0124C6.73913 18.7648 6.1176 18.4629 5.51973 18.1201C5.47244 18.0925 5.46865 18.0249 5.51216 17.9925C5.63797 17.8982 5.76382 17.8001 5.88396 17.7011C5.90569 17.683 5.93598 17.6792 5.96153 17.6906C9.88928 19.4839 14.1415 19.4839 18.023 17.6906C18.0485 17.6782 18.0788 17.682 18.1015 17.7001C18.2216 17.7992 18.3475 17.8982 18.4742 17.9925C18.5177 18.0249 18.5149 18.0925 18.4676 18.1201C17.8697 18.4696 17.2482 18.7648 16.5945 19.0115C16.552 19.0277 16.533 19.0772 16.5538 19.1181C16.9143 19.8162 17.3258 20.4809 17.7789 21.1114C17.7978 21.1381 17.8319 21.1495 17.8631 21.14C19.8241 20.5333 21.8126 19.6181 23.8654 18.1106C23.8834 18.0973 23.8948 18.0772 23.8967 18.0553C24.3971 12.8784 23.0585 8.38148 20.3482 4.39498C20.3416 4.38166 20.3303 4.37213 20.317 4.36642ZM8.02002 15.3278C6.8375 15.3278 5.86313 14.2422 5.86313 12.9089C5.86313 11.5756 6.8186 10.49 8.02002 10.49C9.23087 10.49 10.1958 11.5851 10.1769 12.9089C10.1769 14.2422 9.22141 15.3278 8.02002 15.3278ZM15.9947 15.3278C14.8123 15.3278 13.8379 14.2422 13.8379 12.9089C13.8379 11.5756 14.7933 10.49 15.9947 10.49C17.2056 10.49 18.1705 11.5851 18.1516 12.9089C18.1516 14.2422 17.2056 15.3278 15.9947 15.3278Z" /></symbol>
  <symbol id="icon-doc" viewBox="0 0 24 24"><path d="M24 18H18.8571C18.4026 17.9995 17.9669 17.8187 17.6455 17.4973C17.3242 17.1759 17.1434 16.7402 17.1429 16.2857V7.71429C17.1433 7.25977 17.3241 6.824 17.6455 6.5026C17.9669 6.18121 18.4026 6.00045 18.8571 6H24V7.71429H18.8571V16.2857H24V18Z" /><path d="M13.7143 18H10.2857C9.83122 17.9995 9.39549 17.8187 9.07411 17.4973C8.75273 17.1759 8.57195 16.7402 8.57143 16.2857V7.71429C8.57188 7.25977 8.75264 6.824 9.07403 6.5026C9.39543 6.18121 9.8312 6.00045 10.2857 6H13.7143C14.1688 6.00045 14.6046 6.18121 14.926 6.5026C15.2474 6.824 15.4281 7.25977 15.4286 7.71429V16.2857C15.4281 16.7402 15.2473 17.1759 14.9259 17.4973C14.6045 17.8187 14.1688 17.9995 13.7143 18ZM10.2857 7.71429V16.2857H13.7143V7.71429H10.2857Z" /><path d="M3.42857 18H0V6H3.42857C4.33757 6.00102 5.20905 6.36257 5.85181 7.00533C6.49457 7.64809 6.85612 8.51957 6.85714 9.42857V14.5714C6.85612 15.4804 6.49457 16.3519 5.85181 16.9947C5.20905 17.6374 4.33757 17.999 3.42857 18ZM1.71429 16.2857H3.42857C3.88309 16.2853 4.31886 16.1045 4.64025 15.7831C4.96165 15.4617 5.1424 15.0259 5.14286 14.5714V9.42857C5.1424 8.97405 4.96165 8.53828 4.64025 8.21689C4.31886 7.8955 3.88309 7.71474 3.42857 7.71429H1.71429V16.2857Z" /></symbol>
  <symbol id="icon-info-outline" viewBox="0 0 24 24"><path d="M12.75 16.5V10.5H9.75V12H11.25V16.5H9V18H15V16.5H12.75Z" /><path d="M12 6C11.7775 6 11.56 6.06598 11.375 6.1896C11.19 6.31321 11.0458 6.48891 10.9606 6.69448C10.8755 6.90005 10.8532 7.12625 10.8966 7.34448C10.94 7.56271 11.0472 7.76316 11.2045 7.9205C11.3618 8.07783 11.5623 8.18498 11.7805 8.22838C11.9988 8.27179 12.225 8.24951 12.4305 8.16436C12.6361 8.07922 12.8118 7.93502 12.9354 7.75002C13.059 7.56501 13.125 7.3475 13.125 7.125C13.125 6.82663 13.0065 6.54048 12.7955 6.3295C12.5845 6.11853 12.2984 6 12 6Z" /><path d="M12 22.5C9.9233 22.5 7.89323 21.8842 6.16652 20.7304C4.4398 19.5767 3.09399 17.9368 2.29927 16.0182C1.50455 14.0996 1.29661 11.9884 1.70176 9.95156C2.1069 7.91476 3.10693 6.04383 4.57538 4.57538C6.04383 3.10693 7.91476 2.1069 9.95156 1.70176C11.9884 1.29661 14.0996 1.50455 16.0182 2.29927C17.9368 3.09399 19.5767 4.4398 20.7304 6.16652C21.8842 7.89323 22.5 9.9233 22.5 12C22.5 14.7848 21.3938 17.4555 19.4246 19.4246C17.4555 21.3938 14.7848 22.5 12 22.5ZM12 3C10.22 3 8.47992 3.52785 6.99987 4.51678C5.51983 5.50571 4.36628 6.91132 3.68509 8.55585C3.0039 10.2004 2.82567 12.01 3.17294 13.7558C3.5202 15.5016 4.37737 17.1053 5.63604 18.364C6.89472 19.6226 8.49836 20.4798 10.2442 20.8271C11.99 21.1743 13.7996 20.9961 15.4442 20.3149C17.0887 19.6337 18.4943 18.4802 19.4832 17.0001C20.4722 15.5201 21 13.78 21 12C21 9.61306 20.0518 7.32387 18.364 5.63604C16.6761 3.94822 14.387 3 12 3Z" /></symbol>
  <symbol id="icon-menu" viewBox="0 0 24 24"><path d="M21 4.5H3V6H21V4.5Z" /><path d="M21 18H3V19.5H21V18Z" /><path d="M21 9H3V10.5H21V9Z" /><path d="M21 13.5H3V15H21V13.5Z" /></symbol>
  <symbol id="icon-money" viewBox="0 0 24 24"><path d="M22.5 16.5H1.5V18H22.5V16.5Z" /><path d="M22.5 19.5H1.5V21H22.5V19.5Z" /><path d="M18 7.5C17.7033 7.5 17.4133 7.58797 17.1666 7.7528C16.92 7.91762 16.7277 8.15189 16.6142 8.42598C16.5006 8.70006 16.4709 9.00166 16.5288 9.29264C16.5867 9.58361 16.7296 9.85088 16.9393 10.0607C17.1491 10.2704 17.4164 10.4133 17.7074 10.4712C17.9983 10.5291 18.2999 10.4994 18.574 10.3858C18.8481 10.2723 19.0824 10.08 19.2472 9.83336C19.412 9.58668 19.5 9.29667 19.5 9C19.5 8.60218 19.342 8.22064 19.0607 7.93934C18.7794 7.65804 18.3978 7.5 18 7.5Z" /><path d="M12 12C11.4067 12 10.8266 11.8241 10.3333 11.4944C9.83994 11.1648 9.45543 10.6962 9.22836 10.1481C9.0013 9.59987 8.94189 8.99667 9.05765 8.41473C9.1734 7.83279 9.45912 7.29824 9.87868 6.87868C10.2982 6.45912 10.8328 6.1734 11.4147 6.05765C11.9967 5.94189 12.5999 6.0013 13.1481 6.22836C13.6962 6.45543 14.1648 6.83994 14.4944 7.33329C14.8241 7.82664 15 8.40666 15 9C14.9991 9.79538 14.6828 10.5579 14.1203 11.1203C13.5579 11.6828 12.7954 11.9991 12 12ZM12 7.5C11.7033 7.5 11.4133 7.58798 11.1666 7.7528C10.92 7.91762 10.7277 8.15189 10.6142 8.42598C10.5007 8.70007 10.4709 9.00167 10.5288 9.29264C10.5867 9.58361 10.7296 9.85088 10.9393 10.0607C11.1491 10.2704 11.4164 10.4133 11.7074 10.4712C11.9983 10.5291 12.2999 10.4994 12.574 10.3858C12.8481 10.2723 13.0824 10.08 13.2472 9.83336C13.412 9.58668 13.5 9.29667 13.5 9C13.4996 8.6023 13.3414 8.221 13.0602 7.93978C12.779 7.65856 12.3977 7.5004 12 7.5Z" /><path d="M6 7.5C5.70333 7.5 5.41332 7.58797 5.16665 7.7528C4.91997 7.91762 4.72771 8.15189 4.61418 8.42598C4.50065 8.70006 4.47094 9.00166 4.52882 9.29264C4.5867 9.58361 4.72956 9.85088 4.93934 10.0607C5.14912 10.2704 5.41639 10.4133 5.70737 10.4712C5.99834 10.5291 6.29994 10.4994 6.57403 10.3858C6.84812 10.2723 7.08238 10.08 7.24721 9.83336C7.41203 9.58668 7.5 9.29667 7.5 9C7.5 8.60218 7.34197 8.22064 7.06066 7.93934C6.77936 7.65804 6.39783 7.5 6 7.5Z" /><path d="M21 15H3C2.60249 14.999 2.22154 14.8406 1.94046 14.5595C1.65937 14.2785 1.50101 13.8975 1.5 13.5V4.5C1.50101 4.10249 1.65937 3.72154 1.94046 3.44046C2.22154 3.15937 2.60249 3.00101 3 3H21C21.3975 3.00101 21.7785 3.15937 22.0595 3.44046C22.3406 3.72154 22.499 4.10249 22.5 4.5V13.5C22.4995 13.8977 22.3413 14.2789 22.0601 14.5601C21.7789 14.8413 21.3977 14.9995 21 15ZM21 4.5H3V13.5H21V4.5Z" /></symbol>
  <symbol id="icon-monitoring" viewBox="0 0 24 24"><path d="M21 12V16.5H3V4.5H8.25V3H3C2.60218 3 2.22064 3.15804 1.93934 3.43934C1.65804 3.72064 1.5 4.10218 1.5 4.5V16.5C1.5 16.8978 1.65804 17.2794 1.93934 17.5607C2.22064 17.842 2.60218 18 3 18H9V21H6V22.5H18V21H15V18H21C21.3978 18 21.7794 17.842 22.0607 17.5607C22.342 17.2794 22.5 16.8978 22.5 16.5V12H21ZM13.5 21H10.5V18H13.5V21Z" fill="#F6F7EB"/><path d="M13.5 13.5H13.4925C13.3309 13.4983 13.1741 13.4444 13.0455 13.3464C12.917 13.2484 12.8236 13.1115 12.7792 12.956L11.4342 8.25H8.25V6.75H12C12.163 6.75 12.3215 6.80309 12.4516 6.90122C12.5817 6.99936 12.6763 7.13721 12.7211 7.2939L13.5268 10.1131L15.7834 2.77935C15.832 2.62698 15.9274 2.49381 16.0561 2.39878C16.1847 2.30375 16.3401 2.25169 16.5 2.25C16.658 2.24767 16.8125 2.29629 16.9406 2.38867C17.0688 2.48104 17.1638 2.61225 17.2115 2.76285L18.5405 6.75H22.5V8.25H18C17.8426 8.25001 17.6892 8.20047 17.5615 8.10843C17.4338 8.01639 17.3383 7.88649 17.2885 7.73715L16.5286 5.45715L14.2167 12.9707C14.1695 13.1239 14.0745 13.258 13.9455 13.3533C13.8165 13.4486 13.6604 13.5 13.5 13.5V13.5Z" fill="#E029B0"/></symbol>
  <symbol id="icon-node-creation" viewBox="0 0 24 24"><path d="M21 15H19.5V16.5H21V21H3V16.5H10.5V15H3C2.60232 15.0005 2.22105 15.1586 1.93984 15.4398C1.65864 15.721 1.50046 16.1023 1.5 16.5V21C1.50046 21.3977 1.65864 21.779 1.93984 22.0602C2.22105 22.3414 2.60232 22.4995 3 22.5H21C21.3977 22.4995 21.7789 22.3414 22.0602 22.0602C22.3414 21.779 22.4995 21.3977 22.5 21V16.5C22.4995 16.1023 22.3414 15.721 22.0602 15.4398C21.7789 15.1586 21.3977 15.0005 21 15Z" fill="#F6F7EB"/><path d="M5.25 19.5C5.66421 19.5 6 19.1642 6 18.75C6 18.3358 5.66421 18 5.25 18C4.83579 18 4.5 18.3358 4.5 18.75C4.5 19.1642 4.83579 19.5 5.25 19.5Z" fill="#F6F7EB"/><path d="M22.5 6H16.5V10.5H12V16.5H18V12H22.5V6ZM16.5 15H13.5V12H16.5V15ZM21 10.5H18V7.5H21V10.5Z" fill="#E029B0"/><path d="M13.5 7.5H7.5V1.5H13.5V7.5ZM9 6H12V3H9V6Z" fill="#E029B0"/></symbol>
  <symbol id="icon-node" viewBox="0 0 24 24"><path d="M20.25 16.5C19.6819 16.5012 19.1355 16.7187 18.722 17.1083L15.719 15.3065C15.7603 15.1043 15.7603 14.8957 15.719 14.6935L18.722 12.8917C19.1007 13.2413 19.5883 13.4497 20.1027 13.482C20.6171 13.5142 21.1269 13.3684 21.5464 13.069C21.9659 12.7695 22.2695 12.3348 22.4061 11.8378C22.5427 11.3409 22.5041 10.812 22.2966 10.3402C22.0891 9.86842 21.7255 9.48246 21.2669 9.24725C20.8083 9.01203 20.2827 8.94191 19.7785 9.04868C19.2743 9.15544 18.8222 9.43258 18.4983 9.83349C18.1744 10.2344 17.9985 10.7346 18 11.25C18.0032 11.3529 18.0136 11.4555 18.0311 11.5569L15.0282 13.3586C14.7081 13.0585 14.3072 12.8585 13.8748 12.7833C13.4425 12.7081 12.9976 12.761 12.5949 12.9354C12.1922 13.1098 11.8493 13.3982 11.6085 13.7651C11.3676 14.1319 11.2393 14.5612 11.2393 15C11.2393 15.4388 11.3676 15.8681 11.6085 16.2349C11.8493 16.6018 12.1922 16.8902 12.5949 17.0646C12.9976 17.239 13.4425 17.2919 13.8748 17.2167C14.3072 17.1415 14.7081 16.9415 15.0282 16.6414L18.0311 18.4431C18.0136 18.5445 18.0032 18.6471 18 18.75C18 19.195 18.132 19.63 18.3792 20C18.6264 20.37 18.9778 20.6584 19.389 20.8287C19.8001 20.999 20.2525 21.0436 20.689 20.9568C21.1254 20.87 21.5263 20.6557 21.841 20.341C22.1557 20.0263 22.37 19.6254 22.4568 19.189C22.5436 18.7525 22.499 18.3001 22.3287 17.889C22.1584 17.4778 21.8701 17.1264 21.5 16.8792C21.13 16.632 20.695 16.5 20.25 16.5V16.5ZM20.25 10.5C20.3984 10.5 20.5434 10.544 20.6667 10.6264C20.79 10.7088 20.8862 10.8259 20.9429 10.963C20.9997 11.1 21.0145 11.2508 20.9856 11.3963C20.9567 11.5418 20.8852 11.6754 20.7803 11.7803C20.6755 11.8852 20.5418 11.9567 20.3963 11.9856C20.2508 12.0145 20.1 11.9997 19.963 11.9429C19.826 11.8861 19.7088 11.79 19.6264 11.6667C19.544 11.5433 19.5 11.3983 19.5 11.25C19.5002 11.0511 19.5793 10.8605 19.7199 10.7199C19.8605 10.5793 20.0512 10.5002 20.25 10.5V10.5ZM13.5 15.75C13.3517 15.75 13.2067 15.706 13.0833 15.6236C12.96 15.5412 12.8639 15.4241 12.8071 15.287C12.7503 15.15 12.7355 14.9992 12.7644 14.8537C12.7934 14.7082 12.8648 14.5746 12.9697 14.4697C13.0746 14.3648 13.2082 14.2934 13.3537 14.2644C13.4992 14.2355 13.65 14.2503 13.787 14.3071C13.9241 14.3639 14.0412 14.46 14.1236 14.5833C14.206 14.7067 14.25 14.8517 14.25 15C14.2498 15.1989 14.1708 15.3895 14.0301 15.5301C13.8895 15.6707 13.6989 15.7498 13.5 15.75V15.75ZM20.25 19.5C20.1017 19.5 19.9567 19.456 19.8333 19.3736C19.71 19.2912 19.6139 19.1741 19.5571 19.037C19.5003 18.9 19.4855 18.7492 19.5144 18.6037C19.5434 18.4582 19.6148 18.3246 19.7197 18.2197C19.8246 18.1148 19.9582 18.0434 20.1037 18.0144C20.2492 17.9855 20.4 18.0003 20.537 18.0571C20.6741 18.1139 20.7912 18.21 20.8736 18.3333C20.956 18.4567 21 18.6017 21 18.75C20.9998 18.9489 20.9208 19.1395 20.7801 19.2801C20.6395 19.4207 20.4489 19.4998 20.25 19.5V19.5Z" fill="#E029B0"/><path d="M5.25 6.75C5.66421 6.75 6 6.41421 6 6C6 5.58579 5.66421 5.25 5.25 5.25C4.83579 5.25 4.5 5.58579 4.5 6C4.5 6.41421 4.83579 6.75 5.25 6.75Z" fill="#F6F7EB"/><path d="M5.25 12.75C5.66421 12.75 6 12.4142 6 12C6 11.5858 5.66421 11.25 5.25 11.25C4.83579 11.25 4.5 11.5858 4.5 12C4.5 12.4142 4.83579 12.75 5.25 12.75Z" fill="#F6F7EB"/><path d="M5.25 18.75C5.66421 18.75 6 18.4142 6 18C6 17.5858 5.66421 17.25 5.25 17.25C4.83579 17.25 4.5 17.5858 4.5 18C4.5 18.4142 4.83579 18.75 5.25 18.75Z" fill="#F6F7EB"/><path d="M16.5 9.75V3.75C16.4995 3.35232 16.3414 2.97105 16.0602 2.68984C15.779 2.40864 15.3977 2.25046 15 2.25H3C2.60232 2.25046 2.22105 2.40864 1.93984 2.68984C1.65864 2.97105 1.50046 3.35232 1.5 3.75V20.25C1.50046 20.6477 1.65864 21.029 1.93984 21.3102C2.22105 21.5914 2.60232 21.7495 3 21.75H15V20.25H3V15.75H9V14.25H3V9.75H16.5ZM3 3.75H15V8.25H3V3.75Z" fill="#F6F7EB"/></symbol>
  <symbol id="icon-piggy-bank" viewBox="0 0 24 24"><path d="M15 8.25H9.75V9.75H15V8.25Z" fill="#E029B0"/><path d="M21.75 9.75H20.235C20.2134 9.15751 20.0704 8.57576 19.815 8.04072C19.5596 7.50568 19.1971 7.02873 18.75 6.63938V3.75C18.75 3.61072 18.7112 3.47418 18.638 3.3557C18.5648 3.23722 18.46 3.14147 18.3354 3.07918C18.2108 3.01689 18.0714 2.99052 17.9326 3.00303C17.7939 3.01554 17.6614 3.06643 17.55 3.15L14.7499 5.25H11.25C7.11787 5.25 4.15245 7.6809 3.78862 11.25H3.75C3.55114 11.2498 3.36048 11.1707 3.21987 11.0301C3.07925 10.8895 3.00018 10.6989 3 10.5V9H1.5V10.5C1.50066 11.0965 1.73792 11.6685 2.15973 12.0903C2.58155 12.5121 3.15346 12.7493 3.75 12.75H3.8025C3.91132 13.7334 4.23097 14.6817 4.73963 15.5304C5.24829 16.379 5.93401 17.1079 6.75 17.6675V20.25C6.75 20.4489 6.82902 20.6397 6.96967 20.7803C7.11032 20.921 7.30109 21 7.5 21H10.5C10.6989 21 10.8897 20.921 11.0303 20.7803C11.171 20.6397 11.25 20.4489 11.25 20.25V18.75H13.5V20.25C13.5 20.4489 13.579 20.6397 13.7197 20.7803C13.8603 20.921 14.0511 21 14.25 21H17.25C17.4489 21 17.6397 20.921 17.7803 20.7803C17.921 20.6397 18 20.4489 18 20.25V17.7279C18.5418 17.471 19.0154 17.0902 19.3827 16.6163C19.75 16.1424 20.0005 15.5887 20.1141 15H21.75C21.9489 15 22.1397 14.921 22.2803 14.7803C22.421 14.6397 22.5 14.4489 22.5 14.25V10.5C22.5 10.3011 22.421 10.1103 22.2803 9.96967C22.1397 9.82902 21.9489 9.75 21.75 9.75ZM21 13.5H18.843C18.6141 15.5647 18.2254 16.114 16.5 16.7365V19.5H15V17.25H9.75V19.5H8.25V16.7834C7.34693 16.3538 6.58506 15.6756 6.05371 14.8284C5.52237 13.9812 5.24357 13 5.25 12C5.25 8.37345 8.26358 6.75 11.25 6.75H15.2501L17.25 5.25V7.3323C19.0637 8.72678 18.6844 9.7218 18.7637 11.25H21V13.5Z" fill="#F6F7EB"/></symbol>
  <symbol id="icon-plus" viewBox="0 0 24 24"><path d="M12 3C16.95 3 21 7.05 21 12C21 16.95 16.95 21 12 21C7.05 21 3 16.95 3 12C3 7.05 7.05 3 12 3ZM12 1.5C6.225 1.5 1.5 6.225 1.5 12C1.5 17.775 6.225 22.5 12 22.5C17.775 22.5 22.5 17.775 22.5 12C22.5 6.225 17.775 1.5 12 1.5Z" /><path d="M18 11.25H12.75V6H11.25V11.25H6V12.75H11.25V18H12.75V12.75H18V11.25Z" /></symbol>
  <symbol id="icon-shopping-cart-plus" viewBox="0 0 24 24"><path d="M7.5 22.5C8.32843 22.5 9 21.8284 9 21C9 20.1716 8.32843 19.5 7.5 19.5C6.67157 19.5 6 20.1716 6 21C6 21.8284 6.67157 22.5 7.5 22.5Z" /><path d="M18 22.5C18.8284 22.5 19.5 21.8284 19.5 21C19.5 20.1716 18.8284 19.5 18 19.5C17.1716 19.5 16.5 20.1716 16.5 21C16.5 21.8284 17.1716 22.5 18 22.5Z" /><path d="M3.73545 2.10293C3.70145 1.93291 3.60959 1.77992 3.4755 1.66999C3.34142 1.56007 3.17339 1.5 3 1.5H0V3H2.385L5.26455 17.3971C5.29855 17.5671 5.39041 17.7201 5.5245 17.83C5.65858 17.9399 5.82661 18 6 18H19.5V16.5H6.615L6.015 13.5H19.5C19.6706 13.5 19.8362 13.4418 19.9693 13.3351C20.1024 13.2283 20.1951 13.0793 20.2322 12.9127L21.9334 5.25H20.3978L18.8987 12H5.715L3.73545 2.10293Z" /><path d="M13.5 4.5V1.5H12V4.5H9V6H12V9H13.5V6H16.5V4.5H13.5Z" /></symbol>
  <symbol id="icon-twitter" viewBox="0 0 24 24"><path d="M7.54909 21.752C9.39179 21.7636 11.2185 21.4092 12.9231 20.7094C14.6278 20.0095 16.1766 18.9782 17.4796 17.6752C18.7826 16.3722 19.8139 14.8234 20.5137 13.1188C21.2136 11.4141 21.568 9.58743 21.5564 7.74473C21.5564 7.52655 21.5564 7.31927 21.5564 7.10109C22.5116 6.40126 23.3383 5.54128 24 4.55927C23.1006 4.95265 22.1488 5.21355 21.1745 5.33382C22.2075 4.71831 22.9826 3.74946 23.3564 2.60655C22.3937 3.18412 21.338 3.59015 20.2364 3.80655C19.4945 3.01604 18.5127 2.49206 17.4431 2.31569C16.3734 2.13933 15.2754 2.3204 14.319 2.8309C13.3626 3.34139 12.6011 4.15285 12.1523 5.13972C11.7035 6.12659 11.5925 7.23385 11.8364 8.29018C9.8793 8.19412 7.96441 7.68693 6.21639 6.80164C4.46837 5.91635 2.9264 4.67281 1.69091 3.152C1.06792 4.23328 0.879084 5.5109 1.16265 6.72617C1.44621 7.94144 2.18098 9.00355 3.21818 9.69745C2.45303 9.66794 1.70558 9.45866 1.03636 9.08654V9.14109C1.02956 10.2711 1.41024 11.3693 2.11495 12.2527C2.81966 13.136 3.80582 13.7512 4.90909 13.9956C4.19742 14.187 3.45196 14.2169 2.72727 14.0829C3.04667 15.0466 3.65638 15.8879 4.47278 16.4914C5.28917 17.0949 6.27228 17.4311 7.28727 17.4538C5.55187 18.8508 3.39501 19.6197 1.16727 19.6356C0.776676 19.6243 0.386997 19.5916 0 19.5375C2.25486 20.9741 4.8755 21.7315 7.54909 21.7193" /></symbol>
  <symbol id="icon-wallet" viewBox="0 0 24 24"><path d="M18 12.75H16.5V14.25H18V12.75Z" /><path d="M21 6H3V3.75H19.5V2.25H3C2.60218 2.25 2.22064 2.40804 1.93934 2.68934C1.65804 2.97064 1.5 3.35218 1.5 3.75V19.5C1.5 19.8978 1.65804 20.2794 1.93934 20.5607C2.22064 20.842 2.60218 21 3 21H21C21.3978 21 21.7794 20.842 22.0607 20.5607C22.342 20.2794 22.5 19.8978 22.5 19.5V7.5C22.5 7.10218 22.342 6.72064 22.0607 6.43934C21.7794 6.15804 21.3978 6 21 6ZM3 19.5V7.5H21V9.75H15C14.6022 9.75 14.2206 9.90804 13.9393 10.1893C13.658 10.4706 13.5 10.8522 13.5 11.25V15.75C13.5 16.1478 13.658 16.5294 13.9393 16.8107C14.2206 17.092 14.6022 17.25 15 17.25H21V19.5H3ZM21 11.25V15.75H15V11.25H21Z" /></symbol>
  <symbol id="icon-warning" viewBox="0 0 24 24"><path d="M12 17.25C11.7775 17.25 11.56 17.316 11.375 17.4396C11.19 17.5632 11.0458 17.7389 10.9606 17.9445C10.8755 18.15 10.8532 18.3762 10.8966 18.5945C10.94 18.8127 11.0472 19.0132 11.2045 19.1705C11.3618 19.3278 11.5623 19.435 11.7805 19.4784C11.9988 19.5218 12.225 19.4995 12.4305 19.4144C12.6361 19.3292 12.8118 19.185 12.9354 19C13.059 18.815 13.125 18.5975 13.125 18.375C13.125 18.0766 13.0065 17.7905 12.7955 17.5795C12.5845 17.3685 12.2984 17.25 12 17.25Z" /><path d="M12.75 9H11.25V15.75H12.75V9Z" /><path d="M21.75 22.5H2.25001C2.12115 22.5 1.99447 22.4668 1.88218 22.4036C1.76988 22.3404 1.67576 22.2494 1.60889 22.1392C1.54203 22.0291 1.50466 21.9036 1.50041 21.7748C1.49615 21.646 1.52515 21.5183 1.58461 21.404L11.3346 2.65396C11.3979 2.53219 11.4935 2.43013 11.6108 2.3589C11.7281 2.28767 11.8627 2.25 12 2.25C12.1373 2.25 12.2719 2.28767 12.3892 2.3589C12.5065 2.43013 12.6021 2.53219 12.6654 2.65396L22.4154 21.404C22.4749 21.5183 22.5039 21.646 22.4996 21.7748C22.4953 21.9036 22.458 22.0291 22.3911 22.1392C22.3242 22.2494 22.2301 22.3404 22.1178 22.4036C22.0055 22.4668 21.8789 22.5 21.75 22.5ZM3.48803 21H20.512L20.5135 20.9975L12.0015 4.62856H11.9985L3.48653 20.9975L3.48803 21Z" /></symbol>
</svg>
